<?xml version="1.0" standalone="no"?>
<!DOCTYPE svg PUBLIC "-//W3C//DTD SVG 20010904//EN"
 "http://www.w3.org/TR/2001/REC-SVG-20010904/DTD/svg10.dtd">
<svg version="1.0" xmlns="http://www.w3.org/2000/svg"
 width="907.000000pt" height="907.000000pt" viewBox="0 0 907.000000 907.000000"
 preserveAspectRatio="xMidYMid meet">

<g transform="translate(0.000000,907.000000) scale(0.100000,-0.100000)"
fill="#000000" stroke="none">
<path d="M4481 8931 l-53 -119 -82 -7 c-243 -19 -421 -45 -665 -96 -738 -156
-1433 -510 -2008 -1023 -475 -423 -894 -1007 -1149 -1598 -163 -379 -290 -869
-324 -1248 -13 -148 -13 -580 0 -735 31 -367 105 -750 210 -1080 71 -224 224
-575 340 -780 12 -22 34 -60 48 -85 51 -90 234 -358 315 -462 378 -486 858
-886 1407 -1171 675 -351 1365 -512 2120 -494 359 8 617 42 945 122 612 150
1161 421 1674 828 156 124 536 504 647 647 425 548 684 1067 833 1670 136 550
180 1115 126 1600 -52 462 -194 939 -409 1377 -257 522 -584 968 -986 1342
-748 697 -1664 1101 -2674 1181 -71 5 -135 10 -142 10 -8 0 -14 4 -14 10 0 11
-90 210 -100 223 -4 4 -30 -46 -59 -112z m144 -310 c115 -287 117 -302 68
-407 -40 -88 -50 -86 -45 9 4 75 2 88 -21 133 -15 27 -35 60 -47 74 l-20 25 6
-165 c5 -148 11 -229 31 -382 l6 -48 -67 0 c-48 0 -66 4 -66 13 0 8 6 58 14
113 13 90 31 473 22 463 -2 -2 -22 -34 -44 -71 -38 -61 -41 -74 -44 -145 l-3
-78 -33 55 c-52 86 -45 137 51 375 41 105 81 203 87 219 6 16 14 25 19 20 4
-5 43 -96 86 -203z m-786 -428 c37 -62 43 -83 21 -83 -5 0 -28 27 -50 61 -34
48 -39 63 -30 75 7 8 14 14 16 14 1 0 21 -30 43 -67z m1447 42 c8 -19 -64
-128 -79 -122 -19 7 -12 33 23 87 33 52 47 60 56 35z m-361 -91 c-27 -80 -45
-113 -45 -82 0 37 52 180 61 171 7 -7 1 -37 -16 -89z m-771 64 c3 -13 14 -53
25 -90 11 -38 16 -68 12 -68 -7 0 -22 36 -69 168 -2 6 3 12 11 12 8 0 17 -10
21 -22z m-203 -203 c56 -96 43 -104 -20 -12 -28 43 -49 82 -45 88 9 15 18 4
65 -76z m1229 64 c0 -15 -83 -149 -92 -149 -16 0 -7 23 32 91 38 64 60 85 60
58z m-1477 -178 c59 -59 107 -114 107 -121 0 -7 -44 27 -97 76 -123 110 -143
131 -143 144 0 27 35 1 133 -99z m703 72 c-3 -21 -17 -109 -32 -196 -25 -151
-25 -159 -8 -178 9 -10 12 -19 6 -19 -6 0 -25 -12 -42 -27 -28 -23 -32 -31
-27 -63 4 -32 1 -39 -24 -56 -37 -24 -96 -108 -109 -154 -15 -51 -12 -151 5
-200 8 -23 15 -46 15 -49 0 -4 -26 -15 -57 -25 -107 -34 -206 -95 -307 -190
-33 -30 -60 -54 -61 -53 -1 1 -9 15 -19 31 -61 98 -82 397 -38 551 51 180 163
358 297 472 71 61 198 133 289 165 111 38 119 37 112 -9z m340 16 c371 -113
643 -470 644 -842 0 -127 -15 -233 -42 -302 -11 -27 -24 -60 -29 -73 -9 -23
-9 -23 -40 12 -41 48 -174 148 -235 179 -27 13 -74 32 -104 43 -30 10 -57 19
-59 20 -1 2 5 26 14 55 45 135 -5 293 -113 361 -24 15 -30 24 -23 31 20 20 11
55 -20 81 -17 14 -37 26 -46 26 -11 0 -9 5 7 18 l22 18 -31 180 c-34 195 -36
214 -22 214 5 0 40 -9 77 -21z m739 11 c3 -5 2 -16 -2 -24 -17 -28 -218 -206
-221 -196 -4 10 195 227 210 229 4 1 10 -3 13 -9z m-875 -174 c0 -2 3 -11 6
-20 5 -14 -6 -16 -80 -16 -79 0 -86 2 -86 20 0 18 7 20 80 20 44 0 80 -2 80
-4z m-1034 -149 c63 -44 112 -82 109 -85 -4 -5 -188 105 -243 145 -35 26 -35
51 0 32 11 -6 72 -47 134 -92z m2074 81 c0 -7 -35 -35 -78 -62 -42 -27 -101
-65 -131 -84 -95 -61 -48 -10 69 76 112 80 140 95 140 70z m-1022 -35 c3 -10
-20 -13 -92 -13 -80 0 -96 3 -96 15 0 13 15 15 92 13 62 -2 93 -7 96 -15z m0
-80 c-3 -16 -16 -18 -95 -18 -50 0 -95 4 -99 8 -17 17 24 27 109 27 79 0 88
-2 85 -17z m-76 -120 l3 -75 38 -13 c68 -23 113 -61 141 -116 50 -100 28 -201
-61 -278 l-44 -40 38 -6 c234 -36 433 -124 544 -242 l52 -55 -6 -76 c-10 -131
-39 -251 -133 -560 -21 -72 -30 -89 -36 -73 -9 25 4 106 31 198 11 37 31 110
45 161 l25 94 -67 30 c-37 17 -98 44 -137 59 -59 25 -64 28 -30 23 22 -4 81
-19 131 -35 107 -34 114 -35 114 -11 0 21 -76 73 -168 112 -37 16 -61 29 -54
30 24 0 175 -41 203 -56 37 -19 39 -18 39 10 0 27 -19 41 -145 105 -45 23 -67
39 -50 35 70 -14 112 -27 147 -45 50 -26 56 -24 27 7 -36 39 -133 102 -213
140 -73 33 -211 74 -253 74 l-22 0 24 -36 c29 -42 45 -94 45 -145 0 -69 -86
-197 -113 -170 -7 7 0 33 21 79 36 77 39 115 17 170 -33 77 -86 112 -170 112
-64 0 -102 -16 -139 -60 -53 -64 -57 -147 -9 -229 18 -31 23 -49 17 -62 -8
-18 -11 -18 -31 -4 -13 9 -34 35 -48 59 -47 80 -43 172 11 251 l25 37 -47 -7
c-124 -18 -286 -88 -393 -170 -55 -42 -79 -65 -68 -65 3 0 29 11 58 24 30 14
77 27 104 30 l50 6 -50 -20 c-79 -33 -159 -91 -163 -119 -3 -20 -1 -23 15 -17
56 23 163 54 198 59 32 5 18 -4 -75 -51 -90 -45 -116 -62 -118 -79 -4 -29 -4
-29 111 6 166 52 181 46 42 -14 -71 -31 -133 -59 -137 -63 -4 -4 15 -83 42
-177 73 -251 83 -395 12 -175 -64 199 -93 309 -112 419 -32 181 -32 182 48
260 118 116 294 191 530 225 33 4 57 16 34 16 -24 0 -90 72 -112 122 -56 130
20 267 173 312 14 5 17 18 17 85 0 66 3 79 15 75 10 -4 15 -26 17 -81z m-1102
-37 c154 -79 193 -114 63 -57 -205 90 -243 110 -237 126 4 9 9 15 13 13 3 -2
76 -39 161 -82z m2338 62 c2 -10 -44 -36 -154 -87 -85 -40 -158 -70 -162 -67
-9 10 6 19 143 91 72 37 134 71 140 76 13 12 29 6 33 -13z m-2700 -219 c57
-14 92 -28 92 -36 0 -7 -6 -13 -12 -13 -15 0 -201 41 -207 46 -9 8 10 35 22
31 6 -3 54 -15 105 -28z m3016 15 c4 -9 5 -18 3 -20 -4 -4 -188 -44 -204 -44
-7 0 -13 6 -13 14 0 9 33 22 98 39 53 14 100 26 103 26 4 1 10 -6 13 -15z
m-2711 -98 c87 -25 161 -47 164 -50 14 -13 -40 -5 -189 30 -106 25 -158 42
-158 51 0 19 7 17 183 -31z m2457 29 c0 -15 -14 -20 -182 -60 -101 -23 -168
-32 -156 -20 6 7 306 93 326 94 6 1 12 -6 12 -14z m-2754 -265 c41 0 54 -4 54
-15 0 -12 -19 -15 -115 -15 -111 0 -115 1 -115 21 0 21 3 22 61 15 34 -3 86
-6 115 -6z m3054 -10 c0 -19 -7 -20 -115 -20 -94 0 -115 3 -115 15 0 14 26 18
178 23 46 2 52 0 52 -18z m-2602 -6 c6 -2 12 -8 12 -14 0 -13 -339 -14 -359
-1 -7 5 -11 14 -7 20 6 9 320 6 354 -5z m2330 -1 c-3 -16 -21 -18 -188 -21
-149 -2 -182 0 -172 10 8 9 57 15 140 19 241 10 224 11 220 -8z m-1293 -178
c14 -13 25 -31 25 -39 0 -30 -23 -65 -49 -76 -73 -30 -134 59 -79 117 29 31
72 30 103 -2z m1120 -55 c177 -27 185 -29 185 -46 0 -10 -6 -14 -17 -10 -10 2
-93 19 -185 37 -92 17 -166 35 -163 39 2 4 15 6 27 4 13 -2 82 -13 153 -24z
m-2156 15 c-12 -11 -345 -72 -353 -64 -17 16 3 22 137 45 125 20 226 30 216
19z m-389 -64 c0 -15 -9 -18 -95 -35 -44 -9 -90 -18 -102 -21 -18 -4 -23 -1
-23 15 0 11 3 20 8 21 4 1 36 7 72 14 82 15 140 18 140 6z m2918 -12 c41 -8
62 -16 62 -25 0 -18 -27 -18 -127 3 -57 12 -83 22 -83 31 0 15 5 15 148 -9z
m-1488 -64 c35 -18 54 -74 44 -133 l-6 -40 43 -7 c126 -21 446 -127 403 -133
-11 -2 -82 15 -157 37 -74 22 -166 47 -204 57 -37 9 -73 21 -80 26 -8 6 -15 3
-21 -9 -15 -27 -32 -130 -32 -191 0 -51 1 -54 23 -48 12 3 25 6 30 6 4 0 8 35
8 78 l2 77 7 -73 c9 -82 13 -91 38 -76 13 8 19 31 23 85 3 41 6 60 7 43 5 -87
15 -124 32 -124 14 0 20 11 25 49 4 28 4 59 0 70 -5 15 -2 21 9 21 13 0 16
-13 16 -66 0 -62 1 -65 23 -62 20 3 22 9 25 66 2 44 7 62 15 59 8 -3 11 -23 9
-58 l-3 -54 101 3 c68 3 100 0 100 -7 0 -6 -6 -11 -12 -11 -27 -1 -149 -19
-293 -44 -192 -33 -264 -33 -477 3 -95 16 -199 33 -231 37 -98 11 -78 26 32
22 l101 -3 0 58 c0 31 4 57 9 57 12 0 25 -84 17 -105 -3 -9 0 -15 8 -15 8 0
21 -3 30 -6 14 -5 16 4 16 60 0 87 18 86 22 -1 3 -62 5 -68 26 -71 21 -3 22 0
22 55 0 32 5 65 10 73 7 10 10 -7 10 -57 l0 -73 30 0 30 0 2 73 2 72 3 -70 c4
-74 14 -95 44 -95 32 0 26 115 -11 220 -40 113 -40 171 -1 211 34 33 83 39
131 14z m-990 -64 c-8 -5 -89 -41 -179 -81 -150 -65 -191 -76 -191 -52 0 7
205 92 315 130 39 14 77 15 55 3z m2065 -57 c109 -42 175 -72 175 -80 0 -23
-24 -16 -182 53 -259 113 -256 126 7 27z m-1245 -74 c0 -12 -7 -20 -18 -20
-21 0 -167 -37 -311 -79 -58 -17 -107 -29 -109 -26 -13 13 161 76 328 119 116
31 110 30 110 6z m-1230 -28 c0 -27 -208 -99 -217 -76 -3 8 -3 17 -1 20 5 5
197 72 211 73 4 1 7 -7 7 -17z m2819 -23 c81 -25 101 -35 101 -50 0 -25 -5
-25 -112 16 -51 19 -99 35 -105 35 -7 0 -13 9 -13 21 0 14 5 19 14 16 8 -3 60
-20 115 -38z m-437 -106 c81 -47 148 -92 148 -100 0 -7 -4 -13 -10 -13 -10 0
-298 185 -315 202 -20 22 30 -4 177 -89z m-1907 78 c-6 -4 -74 -51 -152 -104
-121 -83 -143 -94 -153 -81 -7 8 -11 16 -9 18 19 15 305 176 313 176 6 0 6 -3
1 -9z m54 -198 c-12 -33 -153 -289 -174 -317 -13 -17 -17 -15 -64 32 -45 43
-63 72 -45 72 11 0 49 -23 70 -42 l21 -19 33 58 c34 60 158 243 165 243 3 0 0
-12 -6 -27z m1704 -75 c35 -51 76 -114 91 -140 15 -27 32 -48 37 -48 6 0 24
11 41 25 16 14 34 25 39 25 20 0 7 -38 -23 -66 -65 -60 -61 -60 -104 8 -72
118 -161 288 -149 288 2 0 33 -42 68 -92z m-1557 5 c-9 -33 -47 -160 -85 -284
-120 -392 -164 -566 -211 -834 -26 -151 -36 -336 -22 -389 16 -56 8 -55 -19 1
-33 66 -36 172 -11 343 44 292 129 624 245 950 54 152 108 283 114 277 2 -3
-3 -31 -11 -64z m1464 -275 c77 -220 121 -375 165 -568 79 -350 95 -594 46
-673 -24 -39 -42 -45 -22 -9 16 30 13 210 -4 327 -36 240 -108 551 -180 775
-78 243 -145 463 -144 474 2 26 85 -168 139 -326z m-453 273 c35 -5 76 -19 92
-30 41 -29 70 -96 78 -175 l6 -66 -36 -15 c-23 -9 -68 -15 -120 -15 -102 0
-156 -24 -203 -91 -34 -48 -60 -112 -30 -75 14 17 20 18 54 8 96 -29 151 -11
249 82 39 36 73 66 77 66 7 0 6 -13 -19 -207 -14 -111 -64 -282 -107 -367 -62
-122 -156 -223 -250 -270 -43 -21 -66 -26 -131 -26 -105 0 -166 29 -262 124
-98 98 -167 236 -209 421 -17 71 -49 315 -43 321 3 3 36 -24 75 -60 93 -85
121 -99 189 -94 80 7 93 28 17 28 -50 0 -64 4 -80 21 l-19 22 36 -7 c20 -3 49
-2 64 4 25 9 30 6 71 -37 24 -27 44 -43 44 -38 0 27 -65 118 -101 142 -35 23
-54 27 -143 32 -158 9 -173 26 -140 155 21 83 67 131 139 144 65 13 621 14
702 3z m-1160 -203 c-31 -90 -87 -255 -126 -367 -122 -350 -181 -575 -181
-692 l0 -62 -21 19 c-39 35 -18 183 62 449 82 269 307 857 317 827 2 -6 -21
-84 -51 -174z m173 -84 c-60 -247 -120 -560 -135 -698 -19 -174 -19 -375 -1
-444 7 -29 12 -52 10 -52 -2 0 -16 21 -31 48 l-28 47 0 195 c0 197 8 270 56
535 19 109 134 596 147 625 4 8 8 -17 10 -56 2 -53 -5 -103 -28 -200z m1449
191 c52 -106 174 -424 253 -659 50 -149 106 -372 114 -451 5 -53 3 -64 -19
-93 l-25 -33 5 43 c10 91 -66 393 -179 708 -126 354 -198 564 -188 554 5 -5
22 -36 39 -69z m-89 -275 c102 -407 152 -824 119 -982 -11 -53 -56 -154 -65
-146 -2 3 4 25 13 49 14 36 17 74 16 209 -3 265 -39 500 -149 945 -21 88 -34
163 -34 205 l1 65 25 -75 c14 -41 48 -163 74 -270z m-442 -39 l47 -7 -32 -17
c-33 -17 -70 -20 -111 -9 -21 7 -22 8 -6 30 11 16 22 21 36 16 11 -3 41 -9 66
-13z m-807 -81 c11 -46 18 -85 15 -87 -8 -8 -44 63 -51 99 -6 34 1 85 11 75 3
-3 14 -42 25 -87z m1109 37 c0 -23 -8 -57 -18 -76 -31 -62 -39 -44 -17 43 21
89 35 102 35 33z m136 -257 c9 -58 18 -186 21 -326 5 -194 3 -244 -11 -307 -9
-41 -24 -83 -32 -93 -15 -18 -15 -18 -10 6 19 77 26 308 15 495 -23 425 -21
448 17 225z m-1395 -16 c-22 -121 -11 -649 14 -729 3 -11 -1 -8 -9 7 -41 71
-51 144 -51 383 1 218 9 311 38 445 l12 55 3 -50 c2 -27 -2 -77 -7 -111z m174
39 c46 -46 46 -111 0 -154 -28 -27 -35 -41 -35 -71 0 -53 -28 -52 -36 1 -4 26
-18 50 -40 72 -44 42 -47 93 -8 138 21 25 34 31 64 31 23 0 45 -7 55 -17z
m1142 -22 c34 -51 30 -84 -18 -135 -36 -40 -40 -48 -33 -80 5 -28 3 -36 -9
-36 -15 0 -27 28 -27 64 0 10 -16 36 -35 57 -36 40 -42 68 -26 112 17 43 40
58 84 55 34 -2 45 -9 64 -37z m-892 -493 c5 4 5 -1 2 -11 -5 -12 -3 -16 5 -11
8 5 9 2 5 -9 -3 -10 -2 -17 3 -17 6 0 11 8 11 18 1 16 2 16 6 0 2 -10 9 -18
14 -18 6 0 7 5 3 12 -5 7 -3 8 5 4 7 -5 10 -15 7 -23 -4 -9 -2 -11 6 -7 8 5 9
2 5 -9 -3 -9 -2 -19 2 -21 5 -3 8 9 7 26 -1 18 4 32 12 34 7 1 8 0 2 -3 -7 -3
-6 -11 1 -24 5 -11 15 -16 21 -13 7 5 8 2 3 -6 -6 -10 -4 -12 8 -7 10 3 17 3
17 -2 0 -5 14 -11 30 -14 20 -4 30 -13 30 -24 0 -12 3 -14 8 -6 11 17 37 -1
27 -18 -6 -11 -5 -11 5 -2 11 10 11 15 0 28 -8 9 -8 15 -2 15 6 0 14 -4 17
-10 3 -5 11 -10 17 -10 6 0 5 7 -3 18 -13 15 -12 16 3 4 9 -8 22 -11 28 -7 5
3 13 -1 16 -10 6 -14 8 -14 20 2 13 17 14 17 7 -2 -6 -17 -5 -18 9 -5 15 14
14 45 -1 35 -4 -2 -8 2 -8 10 0 11 4 12 14 4 16 -14 47 7 36 24 -3 6 -1 7 6 3
6 -4 9 -12 6 -17 -4 -5 -1 -9 4 -9 6 0 11 7 11 16 0 8 5 12 10 9 6 -3 10 -1
10 6 0 8 5 7 17 -2 11 -10 14 -10 9 -1 -11 19 12 14 24 -5 11 -17 11 -17 6 -1
-4 14 0 17 22 14 15 -2 19 -1 10 1 -10 2 -18 8 -18 13 0 4 10 6 23 3 22 -5 22
-5 2 10 -11 9 -15 17 -9 17 19 0 30 -23 32 -65 2 -22 8 -71 14 -110 7 -38 11
-76 9 -84 -4 -22 -40 -48 -118 -87 -126 -61 -292 -59 -427 7 -36 17 -75 42
-87 55 -22 23 -22 27 -11 101 7 43 12 97 12 121 0 33 4 42 17 42 15 0 14 2 -3
16 -18 15 -18 15 2 5 12 -6 25 -7 29 -3z m506 -11 c-10 -9 -11 -8 -5 6 3 10 9
15 12 12 3 -3 0 -11 -7 -18z m-171 -82 c0 -8 -2 -15 -4 -15 -2 0 -6 7 -10 15
-3 8 -1 15 4 15 6 0 10 -7 10 -15z m-303 -296 c85 -40 216 -57 325 -41 101 15
203 67 266 137 41 45 52 52 62 40 25 -31 -63 -131 -159 -179 -102 -52 -132
-58 -290 -54 -144 3 -148 4 -216 37 -107 53 -219 174 -189 204 4 4 35 -20 70
-53 37 -34 92 -72 131 -91z m787 47 l55 -22 -30 -45 c-16 -24 -29 -46 -29 -49
0 -3 21 -18 46 -33 l45 -27 31 22 c29 20 30 23 13 32 -10 6 -30 21 -44 34 -25
21 -24 21 19 -3 25 -14 47 -25 50 -25 3 0 14 14 23 30 10 17 22 30 28 30 17 0
9 -27 -21 -71 -16 -24 -30 -48 -29 -54 0 -5 30 -29 67 -52 l67 -42 28 27 c32
31 35 27 -57 83 -70 44 -50 46 33 3 69 -35 73 -36 91 -19 11 10 20 22 20 27 0
5 -34 25 -75 43 -41 19 -75 37 -75 40 0 3 30 -7 68 -21 37 -14 79 -30 95 -36
15 -5 27 -13 27 -17 0 -29 -161 -200 -257 -273 -117 -91 -284 -173 -418 -207
-108 -27 -145 -30 -145 -11 0 6 11 10 24 10 61 0 65 13 40 116 l-17 65 -36 -3
-36 -3 3 -90 c4 -107 -14 -201 -60 -318 -47 -117 -48 -66 -3 80 64 203 56 341
-25 442 -18 22 -30 44 -27 48 12 11 46 -28 72 -84 14 -29 27 -53 29 -53 2 0
17 5 35 11 24 8 31 17 31 36 0 27 -4 27 -69 7 -38 -11 -21 18 22 39 20 10 37
25 37 32 0 7 -9 42 -20 77 -13 45 -15 57 -5 44 8 -11 21 -43 30 -73 9 -29 18
-53 21 -53 3 0 18 7 34 15 l29 15 -25 60 c-27 67 -31 103 -5 50 9 -19 24 -50
34 -67 l17 -33 35 23 c19 12 35 27 35 33 0 6 -16 29 -36 52 -20 23 -34 47 -32
54 2 6 21 -12 42 -40 41 -56 50 -61 78 -35 26 24 23 36 -22 72 -22 17 -40 37
-40 44 0 6 19 -8 43 -31 48 -47 53 -49 79 -25 27 24 22 35 -27 68 -25 17 -45
34 -45 38 0 5 23 -7 50 -27 28 -20 53 -36 57 -36 4 0 17 10 30 22 l23 21 -48
28 c-26 15 -54 35 -62 46 -14 17 -14 17 7 0 12 -10 46 -29 77 -41z m-1083 3
l-63 -40 22 -25 c13 -13 28 -24 33 -24 5 0 33 16 61 36 l51 36 -49 -50 -48
-50 26 -18 c27 -17 27 -17 57 19 17 21 35 37 41 37 5 0 -6 -19 -26 -42 -37
-43 -37 -56 5 -79 15 -8 22 -2 44 35 41 70 62 78 24 9 l-34 -62 22 -22 c30
-30 49 -19 70 40 22 64 36 67 16 4 -27 -85 -27 -90 -1 -96 41 -11 44 -8 63 65
10 40 20 67 23 60 3 -11 -8 -75 -24 -134 -3 -11 5 -19 30 -28 19 -6 36 -19 39
-30 7 -26 -13 -26 -63 0 -51 26 -69 25 -79 -2 -13 -33 21 -48 49 -23 19 18 20
17 20 -2 0 -18 35 -43 60 -43 5 0 26 30 46 66 34 61 57 84 70 71 4 -3 -6 -18
-21 -34 -40 -42 -63 -93 -75 -167 -14 -76 -6 -134 36 -284 15 -51 23 -96 20
-100 -11 -10 -23 15 -53 103 -23 68 -27 98 -27 197 -1 117 -1 117 -26 123 -14
3 -32 8 -41 11 -13 4 -17 -8 -23 -63 -3 -38 -9 -78 -12 -90 -6 -20 -3 -23 25
-23 19 0 34 -6 38 -15 3 -9 4 -17 2 -19 -8 -8 -192 44 -280 79 -133 54 -265
142 -392 264 -50 47 -142 160 -136 165 12 10 171 66 186 65 10 0 2 -6 -18 -14
-64 -23 -119 -55 -119 -69 0 -7 6 -19 14 -25 11 -10 25 -7 66 14 68 34 100 46
100 37 0 -5 -29 -24 -65 -43 -36 -18 -65 -40 -65 -46 0 -7 11 -20 25 -29 24
-16 27 -15 95 26 68 41 79 53 61 64 -14 9 -53 98 -46 105 4 3 20 -10 36 -29
32 -38 26 -38 97 8 14 9 22 10 22 3 0 -6 -18 -20 -40 -31 -45 -23 -47 -26 -23
-52 20 -23 32 -22 63 2 27 21 40 25 40 11 0 -5 -16 -19 -35 -31 -41 -26 -43
-32 -11 -49 21 -11 28 -10 65 14 22 15 41 33 41 40 0 6 -15 28 -33 48 -18 21
-41 51 -50 67 l-18 29 68 35 c91 47 102 45 24 -5z m-479 -268 c214 -244 430
-376 731 -447 48 -11 77 -23 77 -31 0 -21 -53 -16 -165 17 -207 60 -345 132
-500 261 -95 79 -245 257 -245 292 0 19 22 -1 102 -92z m2108 86 c0 -50 -202
-269 -325 -351 -153 -103 -372 -199 -513 -224 -43 -8 -56 -7 -68 5 -8 9 -14
17 -12 18 2 1 41 10 88 20 151 30 355 121 495 220 58 41 249 231 296 294 24
33 39 40 39 18z m-2182 -114 c144 -179 279 -291 453 -376 141 -68 274 -112
442 -144 29 -6 57 -37 57 -64 0 -9 -13 -34 -29 -56 -44 -60 -76 -130 -94 -203
-31 -127 -49 -206 -71 -315 l-22 -110 -45 -22 c-222 -111 -421 -70 -539 111
-82 125 -87 253 -16 409 63 137 90 256 34 148 -37 -70 -32 -75 -59 54 l-12 60
-13 -97 c-9 -68 -23 -122 -48 -180 -19 -46 -41 -108 -47 -138 -6 -30 -13 -56
-14 -58 -2 -2 -326 105 -401 132 -8 3 -8 27 2 88 7 46 20 153 29 238 18 178
26 215 59 303 43 115 112 209 196 268 30 21 58 38 61 38 4 1 38 -38 77 -86z
m2276 57 c76 -48 144 -127 186 -215 46 -94 69 -204 100 -475 12 -102 22 -191
23 -199 2 -15 3 -14 -244 -100 l-165 -58 -11 62 c-6 34 -29 104 -52 155 -31
71 -43 112 -48 167 -3 40 -9 73 -14 73 -7 0 -22 -63 -24 -105 -3 -48 -8 -46
-40 20 -62 125 -33 -1 36 -160 41 -93 44 -106 43 -185 -1 -142 -53 -245 -163
-325 -90 -66 -238 -85 -340 -46 -61 25 -60 29 -32 -104 11 -49 22 -125 26
-168 5 -50 19 -108 39 -160 l32 -82 150 -50 c82 -28 194 -62 249 -75 l100 -25
-315 -3 -315 -2 -55 27 c-83 42 -143 134 -242 373 -80 193 -108 245 -171 311
-28 31 -47 49 -40 40 6 -9 32 -47 56 -85 47 -72 49 -87 12 -136 -6 -8 -26 -51
-45 -95 -115 -278 -126 -297 -214 -387 l-46 -48 -367 1 -368 0 80 24 c44 12
136 39 205 58 154 43 240 80 240 102 0 9 48 126 106 258 108 247 113 263 138
425 14 91 24 120 33 95 3 -9 10 -9 27 -2 20 10 33 3 107 -53 133 -102 177
-130 185 -117 7 12 -127 148 -220 224 -37 30 -48 35 -64 26 -11 -6 -22 -8 -25
-4 -11 10 32 81 53 88 25 8 37 0 192 -117 64 -48 120 -88 123 -88 3 0 5 6 5
14 0 18 -283 291 -288 277 -5 -16 -42 -13 -42 3 0 22 76 69 102 63 27 -7 165
-116 260 -205 37 -35 72 -62 78 -60 25 8 -176 231 -284 313 -32 24 -40 26 -61
17 -15 -7 -25 -8 -25 -2 0 14 58 70 73 70 27 0 113 -65 198 -150 49 -48 85
-81 80 -72 -5 10 -35 42 -65 72 -31 30 -56 60 -56 66 0 25 55 129 79 150 17
14 44 23 81 27 118 11 353 103 492 192 146 94 289 232 368 356 14 21 27 39 31
39 3 0 27 -14 53 -30z m-1150 -201 c33 -39 40 -67 33 -137 -7 -80 -58 -226
-79 -230 -27 -5 -72 113 -84 218 -15 138 64 228 130 149z m-1439 -794 c92 -32
314 -121 323 -129 22 -23 -34 -10 -210 49 -232 77 -260 89 -252 109 6 16 11
15 139 -29z m2913 23 c-3 -20 -25 -31 -163 -79 -185 -65 -305 -101 -305 -90 0
4 21 18 48 30 51 24 402 159 415 160 5 1 7 -9 5 -21z m42 -219 c0 -16 -7 -29
-16 -33 -21 -8 -18 -14 -38 69 -9 39 -19 77 -22 86 -3 10 4 20 18 26 21 9 24
6 40 -56 10 -36 18 -78 18 -92z m-3064 136 c3 -8 -2 -48 -12 -90 -14 -58 -22
-75 -35 -75 -10 0 -20 4 -23 8 -5 8 5 58 25 135 10 38 35 50 45 22z m104 -32
c0 -29 -42 -173 -51 -173 -22 0 -17 47 17 173 7 22 34 22 34 0z m2838 -57 c12
-41 22 -84 22 -95 0 -23 -18 -29 -25 -8 -56 177 -56 177 -31 177 6 0 21 -34
34 -74z m-2748 32 c0 -7 -9 -47 -21 -90 -14 -50 -26 -78 -35 -78 -8 0 -14 6
-14 14 0 11 27 108 45 164 5 15 25 7 25 -10z m2659 -60 c23 -79 27 -118 11
-118 -5 0 -14 17 -19 38 -6 20 -17 60 -26 87 -18 61 -18 65 -1 65 8 0 22 -29
35 -72z m-2579 32 c0 -29 -31 -153 -41 -164 -21 -23 -20 10 1 94 22 85 40 116
40 70z m2495 -86 c25 -83 27 -110 4 -87 -12 12 -49 137 -49 166 0 38 20 3 45
-79z m-2419 49 c-3 -10 -12 -47 -20 -82 -16 -67 -19 -75 -34 -70 -14 6 30 169
46 169 8 0 11 -7 8 -17z m2332 -57 c24 -82 27 -106 12 -106 -5 0 -10 7 -10 15
0 8 -11 48 -24 90 -17 53 -20 75 -11 75 6 0 22 -33 33 -74z m-2271 37 c-3 -10
-11 -48 -18 -85 -7 -38 -17 -68 -22 -68 -5 0 -6 15 -2 33 21 106 29 137 37
137 5 0 7 -8 5 -17z m2199 -54 c8 -35 17 -75 20 -89 3 -16 2 -21 -4 -15 -9 9
-42 140 -42 166 0 27 12 -2 26 -62z m-2527 -59 c184 -59 306 -107 321 -125 11
-13 -93 14 -357 95 -115 35 -143 47 -143 62 0 10 5 18 11 18 6 0 82 -23 168
-50z m3011 31 c0 -13 -11 -23 -32 -29 -18 -6 -82 -26 -143 -45 -144 -46 -337
-99 -341 -94 -8 8 154 77 236 101 47 14 123 38 170 55 102 36 110 36 110 12z
m-2918 -152 c247 -79 242 -75 214 -170 -8 -30 -26 -92 -40 -139 -13 -47 -42
-137 -65 -200 l-41 -115 -241 -3 -241 -2 5 22 c15 63 127 668 127 686 0 9 75
-12 282 -79z m2928 73 c0 -5 29 -161 65 -348 36 -186 65 -342 65 -346 0 -5
-107 -8 -238 -8 l-239 0 -46 148 c-58 181 -84 277 -88 317 -2 17 -7 35 -11 40
-4 6 -6 19 -4 30 2 16 46 34 232 96 227 77 264 87 264 71z m-2317 -202 c6 0 2
6 -9 14 -19 14 -18 15 3 13 12 0 20 -4 18 -7 -2 -3 0 -12 5 -20 5 -8 4 -22 -2
-34 l-11 -21 20 20 c13 12 17 24 12 31 -5 6 -4 11 4 11 17 0 18 -27 3 -47 -10
-13 -9 -13 7 -1 11 9 17 10 17 2 0 -6 7 -11 16 -11 8 0 12 -4 9 -10 -8 -13 27
0 38 14 5 6 7 -3 4 -21 -3 -25 -1 -30 9 -22 7 6 10 18 7 27 -6 14 -5 15 9 2 8
-8 13 -22 11 -30 -4 -13 -4 -13 5 0 8 10 8 18 0 27 -8 10 -7 12 6 7 20 -8 20
-11 -4 -76 -11 -29 -26 -78 -35 -109 -14 -51 -19 -57 -47 -63 -18 -3 -36 -2
-41 3 -11 11 -97 289 -97 314 0 17 1 17 16 3 8 -9 20 -16 27 -16z m1463 -12
c-3 -18 -25 -92 -48 -165 l-41 -132 -31 6 c-17 3 -34 8 -38 12 -4 3 -21 46
-37 95 -22 64 -27 92 -19 97 7 4 4 9 -8 12 -15 4 -13 5 6 6 20 1 22 3 10 11
-13 8 -12 10 3 10 10 0 16 4 12 9 -3 6 4 8 15 6 11 -2 20 1 20 7 0 6 3 8 7 5
3 -4 13 -1 21 6 13 10 14 9 8 -10 -4 -12 -2 -24 3 -28 7 -3 8 0 5 9 -3 9 -1
16 5 16 6 0 11 -6 12 -12 0 -7 4 -3 10 10 5 13 14 20 20 17 6 -4 13 2 16 14 4
16 11 20 24 16 11 -4 19 -2 19 4 0 6 3 11 6 11 4 0 4 -15 0 -32z m-86 -8 c0
-5 -5 -10 -11 -10 -5 0 -7 5 -4 10 3 6 8 10 11 10 2 0 4 -4 4 -10z m-1276 -15
c11 -8 15 -15 10 -15 -6 0 -19 7 -30 15 -10 8 -14 14 -9 14 6 0 19 -6 29 -14z
m2652 -582 c-4 -16 -10 -64 -13 -109 l-5 -80 -52 18 c-38 13 -83 17 -173 18
l-123 0 0 -126 0 -127 98 7 c87 6 99 9 120 32 l22 25 0 -121 c0 -110 -1 -120
-16 -106 -12 13 -38 16 -120 16 l-104 0 2 -222 3 -223 99 -3 c119 -3 304 12
319 27 27 27 23 6 -8 -46 -19 -32 -49 -83 -66 -115 l-31 -56 -34 14 c-24 10
-80 14 -207 14 -96 0 -195 3 -220 6 -45 6 -46 7 -32 28 12 17 15 71 15 306 0
157 -4 290 -9 296 -9 9 -71 124 -71 130 0 2 18 4 40 4 l40 0 2 88 c4 133 -3
254 -14 277 -6 11 -18 25 -27 32 -13 10 43 12 262 11 152 -1 280 2 284 6 15
15 25 4 19 -21z m-3907 -20 c-25 -47 -25 -46 62 -388 l68 -270 50 -3 c28 -2
51 -4 51 -5 0 -1 -14 -29 -30 -61 -17 -32 -30 -69 -30 -82 0 -34 46 -226 65
-271 9 -20 21 -41 28 -45 7 -4 -40 -8 -102 -8 -90 0 -112 3 -103 12 18 18 15
39 -20 191 l-32 137 -123 0 -122 0 -11 -37 c-5 -21 -21 -85 -34 -143 -22 -92
-23 -108 -11 -132 10 -21 10 -28 2 -29 -7 0 -58 -3 -115 -5 l-103 -4 21 28
c20 27 96 300 86 309 -2 3 -13 0 -24 -6 -32 -17 -49 -13 -83 17 -31 28 -31 28
-15 60 20 40 50 60 112 75 l48 12 68 270 c37 149 67 289 68 313 0 43 -13 80
-34 94 -6 4 55 8 135 8 l147 0 -19 -37z m581 -15 c11 -46 95 -288 177 -510 15
-43 31 -78 35 -78 4 0 11 15 17 33 5 17 51 149 101 292 64 182 90 268 86 288
l-6 27 153 0 c113 -1 147 -3 134 -11 -46 -27 -47 -44 -47 -663 0 -376 4 -594
10 -612 6 -15 9 -29 6 -31 -2 -2 -22 0 -44 6 -46 13 -101 65 -118 113 -9 23
-13 145 -13 416 -1 283 -4 383 -12 380 -7 -2 -30 -53 -51 -113 -46 -128 -208
-556 -216 -569 -5 -9 -70 160 -201 517 -32 87 -63 163 -69 169 -16 16 -17
-724 -2 -753 10 -18 6 -19 -96 -19 l-107 0 19 21 c18 20 19 44 19 559 l0 538
-24 26 -24 26 129 0 130 0 14 -52z m1004 22 c-13 -25 -15 -87 -12 -387 3 -346
4 -360 26 -415 90 -224 370 -253 488 -52 50 85 54 122 54 498 0 311 -2 351
-17 368 -16 17 -11 18 113 17 71 0 123 -3 116 -6 -7 -3 -19 -18 -27 -33 -12
-24 -15 -87 -15 -360 0 -191 -5 -362 -11 -403 -39 -258 -252 -417 -507 -379
-177 26 -307 137 -363 311 -20 62 -22 84 -20 366 2 361 -4 455 -31 484 l-19
21 120 0 119 0 -14 -30z m1096 11 c0 -27 348 -721 361 -721 7 0 10 105 7 351
l-3 351 -24 19 c-23 19 -23 19 99 19 l123 0 -19 -21 c-18 -20 -19 -45 -19
-623 0 -544 2 -605 17 -639 l17 -37 -27 6 c-46 11 -78 31 -104 66 -27 37 -448
877 -448 896 0 7 -6 12 -12 12 -10 0 -12 -84 -10 -397 2 -228 8 -405 13 -415
9 -17 3 -18 -97 -18 -103 0 -106 1 -91 18 15 17 17 70 17 562 l0 544 -22 23
-21 23 121 0 c114 0 122 -1 122 -19z m1970 11 c0 -1 -8 -19 -19 -40 -10 -20
-26 -61 -35 -89 -16 -47 -20 -52 -37 -43 -11 6 -54 10 -97 8 l-77 -3 0 -481
c0 -393 3 -484 14 -497 12 -16 5 -17 -92 -17 l-106 0 15 28 c11 22 14 109 14
500 l0 472 -88 0 c-61 0 -94 -4 -109 -15 -20 -14 -21 -13 -27 33 -4 26 -15 71
-25 100 l-18 53 343 -3 c189 -1 344 -4 344 -6z m-4080 -1412 c0 -5 -24 -10
-54 -10 l-54 0 -7 -69 c-4 -39 -5 -96 -3 -128 3 -50 0 -58 -16 -61 -17 -4 -18
2 -11 106 9 140 5 152 -46 152 -21 0 -39 5 -39 10 0 6 45 10 115 10 70 0 115
-4 115 -10z m150 -26 c7 -21 32 -79 56 -131 24 -52 42 -99 38 -104 -13 -21
-30 -6 -44 38 -15 46 -16 48 -59 51 -76 6 -105 -4 -124 -43 -9 -20 -17 -42
-17 -50 0 -15 -31 -21 -43 -8 -4 3 1 16 11 27 21 24 136 212 145 239 10 27 24
20 37 -19z m550 26 c0 -5 -24 -10 -54 -10 l-54 0 -7 -69 c-4 -39 -5 -96 -3
-128 3 -50 0 -58 -16 -61 -17 -4 -18 2 -11 106 10 154 11 152 -85 152 l-78 0
-7 -69 c-4 -39 -5 -96 -3 -128 3 -50 0 -58 -16 -61 -17 -4 -18 2 -11 106 9
140 5 152 -46 152 -21 0 -39 5 -39 10 0 6 78 10 215 10 137 0 215 -4 215 -10z
m230 -15 c52 -47 43 -150 -20 -216 -34 -36 -41 -39 -89 -39 -57 0 -105 20
-121 49 -5 11 -10 41 -10 68 0 100 70 167 167 160 33 -2 60 -11 73 -22z m300
0 c52 -47 43 -150 -20 -216 -34 -36 -41 -39 -89 -39 -57 0 -105 20 -121 49 -5
11 -10 41 -10 68 0 100 70 167 167 160 33 -2 60 -11 73 -22z m280 10 c-3 -5
-14 -9 -24 -7 -27 3 -66 -25 -66 -48 0 -11 12 -27 28 -37 15 -9 37 -26 50 -37
30 -27 30 -79 -2 -111 -28 -28 -92 -43 -109 -26 -8 8 -6 11 10 11 34 0 83 21
93 40 15 29 -4 66 -49 94 -61 39 -67 91 -13 121 29 16 90 16 82 0z m260 5 c0
-5 -24 -10 -54 -10 l-54 0 -7 -69 c-4 -39 -5 -96 -3 -128 3 -50 0 -58 -16 -61
-17 -4 -18 2 -11 106 9 140 5 152 -46 152 -21 0 -39 5 -39 10 0 6 45 10 115
10 70 0 115 -4 115 -10z m70 -60 c0 -102 17 -169 46 -182 32 -15 63 7 93 66
24 49 53 155 45 168 -7 11 17 21 27 11 12 -12 -26 -147 -57 -200 -30 -52 -59
-73 -100 -73 -52 0 -65 26 -80 152 -13 117 -12 128 12 128 11 0 14 -16 14 -70z
m423 50 c31 -25 51 -81 42 -118 -15 -61 -97 -131 -171 -147 l-32 -6 -1 137 c0
75 2 140 5 145 3 5 34 9 68 9 48 0 69 -5 89 -20z m427 -5 c52 -47 43 -150 -20
-216 -34 -36 -41 -39 -89 -39 -57 0 -105 20 -121 49 -5 11 -10 41 -10 68 0
100 70 167 167 160 33 -2 60 -11 73 -22z m-304 -120 c-1 -116 -3 -135 -17
-135 -14 0 -15 17 -13 133 2 72 3 133 4 135 0 1 6 2 13 2 11 0 13 -29 13 -135z"/>
<path d="M4464 7361 c-106 -48 -132 -183 -51 -268 74 -79 172 -78 246 2 46 50
59 99 42 155 -15 52 -47 89 -95 111 -52 23 -90 23 -142 0z"/>
<path d="M4496 6574 c-23 -22 -20 -65 11 -141 23 -59 28 -64 33 -43 4 14 14
40 23 57 10 18 17 50 17 71 0 61 -48 93 -84 56z"/>
<path d="M4496 6019 c-39 -30 -31 -85 15 -109 25 -14 64 8 75 42 8 22 8 22 16
-7 6 -25 7 -23 3 10 -3 27 -13 47 -30 63 -32 27 -45 28 -79 1z"/>
<path d="M4185 5930 c-44 -6 -100 -36 -130 -70 l-18 -20 44 16 c70 26 154 23
220 -8 104 -48 145 -99 173 -213 2 -11 2 16 -1 60 -7 115 -18 151 -56 178 -60
44 -155 68 -232 57z"/>
<path d="M4749 5917 c-85 -29 -118 -51 -134 -90 -18 -44 -30 -187 -16 -187 6
0 11 14 11 30 0 65 61 133 159 178 69 32 148 33 216 3 27 -12 50 -19 52 -17
10 10 -87 78 -131 91 -65 19 -78 19 -157 -8z"/>
<path d="M4565 5891 c-6 -5 -21 -11 -35 -14 l-25 -4 26 -2 c15 0 32 6 39 14
14 16 10 21 -5 6z"/>
<path d="M4225 5821 c22 -4 51 -10 65 -14 20 -5 19 -4 -5 8 -16 8 -46 14 -65
13 l-35 -1 40 -6z"/>
<path d="M4771 5811 c-8 -5 5 -7 35 -4 68 6 77 11 24 12 -25 0 -51 -3 -59 -8z"/>
<path d="M4552 5373 c-17 -12 -26 -13 -34 -5 -17 17 -63 15 -78 -3 -16 -19
-16 -19 43 -32 32 -7 62 -7 90 -1 72 17 71 17 44 38 -30 24 -35 24 -65 3z"/>
<path d="M4554 5266 c-7 -17 -34 -22 -34 -6 0 6 -11 10 -24 10 -23 0 -136 -84
-136 -101 0 -5 12 -9 26 -9 21 0 24 -4 19 -20 -5 -15 3 -30 28 -55 33 -33 39
-35 102 -35 63 0 69 2 101 34 32 32 45 66 25 66 -12 0 -32 -25 -26 -33 3 -4 2
-5 -2 -2 -3 3 -15 -2 -25 -12 -21 -19 -23 -12 -5 18 10 17 10 23 0 26 -7 3
-13 9 -13 14 0 4 10 5 22 0 22 -8 98 6 98 18 -1 11 -104 88 -128 95 -15 5 -24
3 -28 -8z m-4 -112 c0 -2 -18 -4 -41 -4 -22 0 -38 4 -35 8 5 8 76 4 76 -4z
m-95 -4 c-3 -5 -10 -10 -16 -10 -5 0 -9 5 -9 10 0 6 7 10 16 10 8 0 12 -4 9
-10z m-5 -35 c15 -16 19 -25 10 -25 -15 0 -50 29 -50 42 0 15 16 8 40 -17z
m30 15 c0 -5 -4 -10 -9 -10 -6 0 -13 5 -16 10 -3 6 1 10 9 10 9 0 16 -4 16
-10z"/>
<path d="M3932 5357 c-28 -29 -28 -57 -1 -91 27 -34 55 -33 74 4 21 41 19 87
-4 100 -30 15 -45 12 -69 -13z"/>
<path d="M5060 5360 c-25 -25 -25 -46 0 -87 24 -40 42 -41 69 -7 26 33 27 76
3 97 -25 22 -48 21 -72 -3z"/>
<path d="M4370 4793 c0 -4 5 -15 10 -23 8 -13 10 -13 10 2 0 9 -4 20 -10 23
-5 3 -10 3 -10 -2z"/>
<path d="M4699 4783 c-13 -16 -12 -17 4 -4 9 7 17 15 17 17 0 8 -8 3 -21 -13z"/>
<path d="M4660 4779 c0 -5 5 -7 10 -4 6 3 10 8 10 11 0 2 -4 4 -10 4 -5 0 -10
-5 -10 -11z"/>
<path d="M4408 4773 c6 -2 12 -9 12 -14 0 -6 -5 -7 -12 -3 -7 5 -8 3 -3 -5 5
-9 11 -9 17 -3 12 12 2 32 -15 31 -9 0 -9 -2 1 -6z"/>
<path d="M4440 4760 c0 -5 5 -10 10 -10 6 0 10 5 10 10 0 6 -4 10 -10 10 -5 0
-10 -4 -10 -10z"/>
<path d="M5055 4390 c-17 -19 -17 -21 11 -54 35 -41 49 -43 89 -11 l29 24 -24
9 c-14 6 -36 19 -49 31 -30 26 -33 26 -56 1z"/>
<path d="M4987 4322 c-16 -17 -15 -20 17 -51 l33 -32 29 24 28 25 -24 26 c-29
30 -60 33 -83 8z"/>
<path d="M5200 4321 c-16 -31 -13 -35 51 -85 58 -46 61 -47 85 -31 13 8 24 22
24 30 0 17 -112 105 -134 105 -8 0 -20 -9 -26 -19z"/>
<path d="M4921 4276 c-9 -11 -9 -20 -2 -35 17 -32 12 -38 -10 -12 -18 22 -22
23 -44 11 -14 -7 -25 -17 -25 -22 0 -17 21 -48 32 -48 20 0 127 55 127 66 1
13 -41 54 -56 54 -6 0 -16 -6 -22 -14z"/>
<path d="M5138 4266 c-10 -7 -18 -17 -18 -22 0 -5 24 -35 54 -67 l54 -57 32
26 31 26 -58 54 c-63 57 -69 60 -95 40z"/>
<path d="M5059 4211 l-23 -18 49 -67 c27 -36 52 -66 56 -66 5 0 20 10 34 23
l26 22 -46 63 c-25 34 -51 62 -59 62 -8 0 -24 -8 -37 -19z"/>
<path d="M4783 4200 c-26 -11 -28 -19 -10 -44 10 -14 18 -15 39 -7 20 8 25 15
21 35 -6 28 -14 30 -50 16z"/>
<path d="M4973 4168 c-28 -13 -28 -19 -4 -49 10 -13 28 -43 40 -66 12 -24 23
-43 26 -43 16 0 75 36 75 45 0 7 -9 20 -20 30 -12 11 -31 36 -42 57 -22 39
-37 44 -75 26z"/>
<path d="M4888 4133 c-10 -2 -18 -8 -18 -12 0 -17 60 -146 70 -149 14 -5 72
18 68 27 -2 3 -19 36 -37 74 -33 66 -40 71 -83 60z"/>
<path d="M4815 4113 c-35 -9 -36 -18 -10 -101 l25 -80 32 9 c17 5 35 12 40 17
4 4 -3 34 -16 67 -13 33 -26 68 -29 78 -7 18 -8 18 -42 10z"/>
<path d="M3804 4326 c-11 -12 -37 -34 -57 -49 -43 -33 -46 -49 -12 -67 24 -13
30 -10 86 29 89 60 92 46 6 -23 -45 -37 -47 -40 -31 -57 34 -38 53 -34 110 22
66 66 71 50 7 -21 l-47 -52 25 -19 c28 -21 59 -31 59 -19 0 4 16 31 35 60 19
29 35 58 35 66 0 15 -71 64 -93 64 -8 0 -29 17 -48 38 -45 50 -50 52 -75 28z"/>
<path d="M4002 4319 c-19 -17 -32 -31 -30 -33 31 -21 59 -36 67 -36 5 0 20 14
32 31 l22 32 -22 18 c-30 24 -30 24 -69 -12z"/>
<path d="M4082 4257 c-21 -30 -21 -33 -5 -44 23 -18 28 -17 59 12 33 31 43 25
20 -11 -21 -30 -21 -29 26 -42 63 -17 84 34 26 64 -18 9 -44 25 -57 35 -32 26
-42 24 -69 -14z"/>
<path d="M3998 4114 l-37 -74 30 -15 c16 -9 34 -13 39 -10 10 6 80 127 80 138
0 8 -55 37 -67 36 -4 0 -25 -34 -45 -75z"/>
<path d="M4120 4140 c0 -5 -13 -38 -30 -72 -16 -34 -30 -64 -30 -68 0 -11 72
-32 80 -24 4 5 15 34 25 64 33 104 48 87 18 -20 -9 -33 -14 -62 -12 -64 2 -2
20 -6 39 -8 l35 -3 18 70 c9 39 15 75 13 82 -3 7 -22 15 -43 19 -21 4 -52 13
-70 21 -39 16 -43 16 -43 3z"/>
<path d="M3703 3385 c-27 -19 -40 -77 -25 -110 18 -38 66 -58 108 -45 63 21
84 91 43 144 -16 21 -29 26 -63 26 -23 0 -51 -7 -63 -15z m71 -11 c20 -19 20
-35 2 -60 -12 -15 -18 -17 -33 -8 -22 14 -29 50 -13 70 16 18 25 18 44 -2z"/>
<path d="M5274 3400 c-55 -23 -71 -99 -30 -147 53 -61 160 -19 160 62 0 62
-73 110 -130 85z m76 -54 c0 -32 -19 -47 -42 -35 -24 13 -25 66 0 71 23 6 42
-10 42 -36z"/>
<path d="M4790 3366 c0 -2 8 -10 18 -17 15 -13 16 -12 3 4 -13 16 -21 21 -21
13z"/>
<path d="M5141 2674 c0 -11 3 -14 6 -6 3 7 2 16 -1 19 -3 4 -6 -2 -5 -13z"/>
<path d="M2536 1778 c-2 -7 -16 -69 -31 -138 -15 -69 -30 -135 -32 -147 -5
-22 -3 -23 77 -23 73 0 82 2 78 18 -3 9 -20 81 -38 160 -31 130 -45 163 -54
130z"/>
<path d="M3328 634 c-16 -25 -28 -49 -28 -55 0 -10 93 -13 102 -3 6 6 -33 104
-41 104 -4 0 -18 -21 -33 -46z"/>
<path d="M4024 690 c-74 -33 -96 -143 -38 -189 85 -67 184 -12 184 101 0 85
-65 125 -146 88z"/>
<path d="M4324 690 c-74 -33 -96 -143 -38 -189 85 -67 184 -12 184 101 0 85
-65 125 -146 88z"/>
<path d="M5380 684 c-12 -31 -13 -184 -1 -203 20 -31 123 48 137 104 10 42
-14 95 -52 111 -50 21 -73 18 -84 -12z"/>
<path d="M5784 690 c-74 -33 -96 -143 -38 -189 85 -67 184 -12 184 101 0 85
-65 125 -146 88z"/>
</g>
</svg>
